<svg width="158" height="158" viewBox="0 0 158 158" fill="none" xmlns="http://www.w3.org/2000/svg">
<g id="edmGenre">
<rect id="Rectangle Copy 3" width="158" height="158" rx="1.6" fill="#101010"/>
<path id="ELECTRONIC" d="M28.5945 69.66H32.8225V72.46H28.5945V78.2H33.9145V81H25.5145V61.4H33.9145V64.2H28.5945V69.66ZM36.6981 61.4H39.7781V78.2H44.8461V81H36.6981V61.4ZM50.1414 69.66H54.3694V72.46H50.1414V78.2H55.4614V81H47.0614V61.4H55.4614V64.2H50.1414V69.66ZM67.177 73.692V76.296C67.177 77.8827 66.785 79.1053 66.001 79.964C65.2357 80.804 64.097 81.224 62.585 81.224C61.073 81.224 59.925 80.804 59.141 79.964C58.3757 79.1053 57.993 77.8827 57.993 76.296V66.104C57.993 64.5173 58.3757 63.304 59.141 62.464C59.925 61.6053 61.073 61.176 62.585 61.176C64.097 61.176 65.2357 61.6053 66.001 62.464C66.785 63.304 67.177 64.5173 67.177 66.104V68.008H64.265V65.908C64.265 65.1987 64.1157 64.704 63.817 64.424C63.537 64.1253 63.1543 63.976 62.669 63.976C62.1837 63.976 61.7917 64.1253 61.493 64.424C61.213 64.704 61.073 65.1987 61.073 65.908V76.492C61.073 77.2013 61.213 77.696 61.493 77.976C61.7917 78.256 62.1837 78.396 62.669 78.396C63.1543 78.396 63.537 78.256 63.817 77.976C64.1157 77.696 64.265 77.2013 64.265 76.492V73.692H67.177ZM69.0248 61.4H78.5448V64.2H75.3248V81H72.2448V64.2H69.0248V61.4ZM87.2163 81C87.1789 80.8693 87.1416 80.748 87.1043 80.636C87.0669 80.524 87.0296 80.384 86.9923 80.216C86.9736 80.048 86.9549 79.8333 86.9363 79.572C86.9363 79.3107 86.9363 78.984 86.9363 78.592V75.512C86.9363 74.5973 86.7776 73.9533 86.4603 73.58C86.1429 73.2067 85.6296 73.02 84.9203 73.02H83.8563V81H80.7763V61.4H85.4243C87.0296 61.4 88.1869 61.7733 88.8963 62.52C89.6243 63.2667 89.9883 64.396 89.9883 65.908V67.448C89.9883 69.464 89.3163 70.7893 87.9723 71.424C88.7563 71.7413 89.2883 72.264 89.5683 72.992C89.8669 73.7013 90.0163 74.5693 90.0163 75.596V78.62C90.0163 79.1053 90.0349 79.5347 90.0723 79.908C90.1096 80.2627 90.2029 80.6267 90.3523 81H87.2163ZM83.8563 64.2V70.22H85.0603C85.6389 70.22 86.0869 70.0707 86.4043 69.772C86.7403 69.4733 86.9083 68.932 86.9083 68.148V66.216C86.9083 65.5067 86.7776 64.9933 86.5163 64.676C86.2736 64.3587 85.8816 64.2 85.3403 64.2H83.8563ZM95.7449 76.492C95.7449 77.2013 95.8849 77.7053 96.1649 78.004C96.4635 78.284 96.8555 78.424 97.3409 78.424C97.8262 78.424 98.2089 78.284 98.4889 78.004C98.7875 77.7053 98.9369 77.2013 98.9369 76.492V65.908C98.9369 65.1987 98.7875 64.704 98.4889 64.424C98.2089 64.1253 97.8262 63.976 97.3409 63.976C96.8555 63.976 96.4635 64.1253 96.1649 64.424C95.8849 64.704 95.7449 65.1987 95.7449 65.908V76.492ZM92.6649 66.104C92.6649 64.5173 93.0662 63.304 93.8689 62.464C94.6715 61.6053 95.8289 61.176 97.3409 61.176C98.8529 61.176 100.01 61.6053 100.813 62.464C101.616 63.304 102.017 64.5173 102.017 66.104V76.296C102.017 77.8827 101.616 79.1053 100.813 79.964C100.01 80.804 98.8529 81.224 97.3409 81.224C95.8289 81.224 94.6715 80.804 93.8689 79.964C93.0662 79.1053 92.6649 77.8827 92.6649 76.296V66.104ZM107.637 66.804V81H104.865V61.4H108.729L111.893 73.132V61.4H114.637V81H111.473L107.637 66.804ZM117.718 61.4H120.798V81H117.718V61.4ZM132.857 73.692V76.296C132.857 77.8827 132.465 79.1053 131.681 79.964C130.915 80.804 129.777 81.224 128.265 81.224C126.753 81.224 125.605 80.804 124.821 79.964C124.055 79.1053 123.673 77.8827 123.673 76.296V66.104C123.673 64.5173 124.055 63.304 124.821 62.464C125.605 61.6053 126.753 61.176 128.265 61.176C129.777 61.176 130.915 61.6053 131.681 62.464C132.465 63.304 132.857 64.5173 132.857 66.104V68.008H129.945V65.908C129.945 65.1987 129.795 64.704 129.497 64.424C129.217 64.1253 128.834 63.976 128.349 63.976C127.863 63.976 127.471 64.1253 127.173 64.424C126.893 64.704 126.753 65.1987 126.753 65.908V76.492C126.753 77.2013 126.893 77.696 127.173 77.976C127.471 78.256 127.863 78.396 128.349 78.396C128.834 78.396 129.217 78.256 129.497 77.976C129.795 77.696 129.945 77.2013 129.945 76.492V73.692H132.857Z" fill="white"/>
<path id="Line Copy 2" d="M24.4597 97.5H132.46" stroke="#1DB954" stroke-width="2" stroke-linecap="round" stroke-linejoin="round"/>
</g>
</svg>
