<svg width="57" height="20" viewBox="0 0 57 20" fill="none" xmlns="http://www.w3.org/2000/svg">
<path d="M11.6675 10.6162H9.20752V12.6895H12.1187V14H7.62842V6.17969H12.1079V7.49561H9.20752V9.34326H11.6675V10.6162ZM15.781 8.86523L16.8337 6.17969H18.6438L16.8068 10.0576L18.6867 14H16.8552L15.781 11.2661L14.7121 14H12.8806L14.7604 10.0576L12.9182 6.17969H14.7282L15.781 8.86523ZM21.3661 11.25V14H19.787V6.17969H22.4511C23.2245 6.17969 23.8404 6.4196 24.2987 6.89941C24.7606 7.37923 24.9916 8.00228 24.9916 8.76855C24.9916 9.53483 24.7642 10.14 24.3095 10.584C23.8547 11.028 23.2245 11.25 22.4188 11.25H21.3661ZM21.3661 9.93408H22.4511C22.7519 9.93408 22.9846 9.83561 23.1493 9.63867C23.314 9.44173 23.3964 9.15527 23.3964 8.7793C23.3964 8.389 23.3122 8.07926 23.1439 7.8501C22.9757 7.61735 22.7501 7.49919 22.4672 7.49561H21.3661V9.93408ZM27.9288 12.6895H30.7003V14H26.3497V6.17969H27.9288V12.6895ZM33.5623 14H31.9832V6.17969H33.5623V14ZM40.4902 11.395C40.4508 12.2866 40.2002 12.9616 39.7383 13.4199C39.2764 13.8783 38.6247 14.1074 37.7832 14.1074C36.8988 14.1074 36.2202 13.8174 35.7476 13.2373C35.2785 12.6536 35.0439 11.8229 35.0439 10.7451V9.4292C35.0439 8.35498 35.2874 7.52783 35.7744 6.94775C36.2614 6.3641 36.9382 6.07227 37.8047 6.07227C38.6569 6.07227 39.3032 6.31038 39.7437 6.78662C40.1877 7.26286 40.4401 7.94678 40.501 8.83838H38.9165C38.9022 8.28695 38.8162 7.90739 38.6587 7.69971C38.5047 7.48844 38.2201 7.38281 37.8047 7.38281C37.3822 7.38281 37.0832 7.53141 36.9077 7.82861C36.7323 8.12223 36.6392 8.60742 36.6284 9.28418V10.7612C36.6284 11.5382 36.7144 12.0718 36.8862 12.3618C37.0617 12.6519 37.3607 12.7969 37.7832 12.7969C38.1986 12.7969 38.485 12.6966 38.6426 12.4961C38.8001 12.292 38.8896 11.925 38.9111 11.395H40.4902ZM43.4113 14H41.8322V6.17969H43.4113V14ZM49.9418 7.49561H48.0082V14H46.4237V7.49561H44.5224V6.17969H49.9418V7.49561Z" fill="#666666"/>
<rect x="1" y="1" width="55" height="18" rx="2" stroke="#666666" stroke-width="1.5"/>
</svg>
