<svg width="158" height="158" viewBox="0 0 158 158" fill="none" xmlns="http://www.w3.org/2000/svg">
<g id="hipHopGenre">
<rect id="Rectangle" width="158" height="158" rx="1.6" fill="#101010"/>
<path id="hip hop" d="M44.2255 81V61.4H47.3055V69.8H50.8055V61.4H53.9415V81H50.8055V72.6H47.3055V81H44.2255ZM60.2547 61.4V81H57.1747V61.4H60.2547ZM68.0427 61.4C69.5734 61.4 70.7214 61.8107 71.4867 62.632C72.2521 63.4533 72.6347 64.6573 72.6347 66.244V68.792C72.6347 70.3787 72.2521 71.5827 71.4867 72.404C70.7214 73.2253 69.5734 73.636 68.0427 73.636H66.5867V81H63.5067V61.4H68.0427ZM66.5867 70.836H68.0427C68.5467 70.836 68.9201 70.696 69.1627 70.416C69.4241 70.136 69.5547 69.66 69.5547 68.988V66.048C69.5547 65.376 69.4241 64.9 69.1627 64.62C68.9201 64.34 68.5467 64.2 68.0427 64.2H66.5867V70.836ZM80.4091 81V61.4H83.4891V69.8H86.9891V61.4H90.1251V81H86.9891V72.6H83.4891V81H80.4091ZM93.1063 66.104C93.1063 64.536 93.5076 63.3227 94.3103 62.464C95.1129 61.6053 96.2703 61.176 97.7823 61.176C99.2943 61.176 100.452 61.6053 101.254 62.464C102.057 63.3227 102.458 64.536 102.458 66.104V76.296C102.458 77.864 102.057 79.0773 101.254 79.936C100.452 80.7947 99.2943 81.224 97.7823 81.224C96.2703 81.224 95.1129 80.7947 94.3103 79.936C93.5076 79.0773 93.1063 77.864 93.1063 76.296V66.104ZM96.1863 76.492C96.1863 77.78 96.7183 78.424 97.7823 78.424C98.8463 78.424 99.3783 77.78 99.3783 76.492V65.908C99.3783 64.62 98.8463 63.976 97.7823 63.976C96.7183 63.976 96.1863 64.62 96.1863 65.908V76.492ZM109.996 61.4C111.527 61.4 112.675 61.8107 113.44 62.632C114.205 63.4533 114.588 64.6573 114.588 66.244V68.792C114.588 70.3787 114.205 71.5827 113.44 72.404C112.675 73.2253 111.527 73.636 109.996 73.636H108.54V81H105.46V61.4H109.996ZM108.54 70.836H109.996C110.5 70.836 110.873 70.696 111.116 70.416C111.377 70.136 111.508 69.66 111.508 68.988V66.048C111.508 65.376 111.377 64.9 111.116 64.62C110.873 64.34 110.5 64.2 109.996 64.2H108.54V70.836Z" fill="white"/>
<path id="Line" d="M38.9919 97.5H119.669" stroke="#1DB954" stroke-width="2" stroke-linecap="round" stroke-linejoin="round"/>
</g>
</svg>
