<svg width="158" height="158" viewBox="0 0 158 158" fill="none" xmlns="http://www.w3.org/2000/svg">
<g id="indieGenre">
<rect id="Rectangle Copy 4" width="158" height="158" rx="1.6" fill="#101010"/>
<path id="Indie" d="M58.9839 61.4V81H55.9039V61.4H58.9839ZM64.9799 81H62.2079V61.4H66.0719L69.2359 73.132V61.4H71.9799V81H68.8159L64.9799 66.804V81ZM80.0571 61.4C81.5878 61.4 82.7358 61.8107 83.5011 62.632C84.2665 63.4533 84.6491 64.6573 84.6491 66.244V76.156C84.6491 77.7427 84.2665 78.9467 83.5011 79.768C82.7358 80.5893 81.5878 81 80.0571 81H75.1851V61.4H80.0571ZM78.2651 78.2H80.0011C80.5051 78.2 80.8878 78.0507 81.1491 77.752C81.4291 77.4533 81.5691 76.968 81.5691 76.296V66.104C81.5691 65.432 81.4291 64.9467 81.1491 64.648C80.8878 64.3493 80.5051 64.2 80.0011 64.2H78.2651V78.2ZM90.6948 61.4V81H87.6148V61.4H90.6948ZM101.255 69.66V72.46H97.0268V78.2H102.347V81H93.9468V61.4H102.347V64.2H97.0268V69.66H101.255Z" fill="white"/>
<path id="Line Copy 3" d="M50.4597 97.5H106.46" stroke="#1DB954" stroke-width="2" stroke-linecap="round" stroke-linejoin="round"/>
</g>
</svg>
