<svg width="100" height="23" viewBox="0 0 100 23" fill="none" xmlns="http://www.w3.org/2000/svg">
<path d="M0.93 6.04C0.93 4.36 1.36 3.06 2.22 2.14C3.08 1.22 4.32 0.76 5.94 0.76C7.56 0.76 8.8 1.22 9.66 2.14C10.52 3.06 10.95 4.36 10.95 6.04V16.96C10.95 18.64 10.52 19.94 9.66 20.86C8.8 21.78 7.56 22.24 5.94 22.24C4.32 22.24 3.08 21.78 2.22 20.86C1.36 19.94 0.93 18.64 0.93 16.96V6.04ZM4.23 17.17C4.23 18.55 4.8 19.24 5.94 19.24C7.08 19.24 7.65 18.55 7.65 17.17V5.83C7.65 4.45 7.08 3.76 5.94 3.76C4.8 3.76 4.23 4.45 4.23 5.83V17.17ZM21.9045 10.33V13.33H17.6445V22H14.3445V0.999999H23.0745V4H17.6445V10.33H21.9045ZM33.467 10.33V13.33H29.207V22H25.907V0.999999H34.637V4H29.207V10.33H33.467Z" fill="white"/>
<path d="M46.7095 0.999999V4H43.2595V22H39.9595V4H36.5095V0.999999H46.7095ZM56.3129 22C56.1929 21.66 56.1129 21.34 56.0729 21.04C56.0329 20.74 56.0129 20.2 56.0129 19.42V16.12C56.0129 15.16 55.8429 14.48 55.5029 14.08C55.1629 13.66 54.6129 13.45 53.8529 13.45H52.7129V22H49.4129V0.999999H54.3929C56.0929 0.999999 57.3329 1.4 58.1129 2.2C58.8929 2.98 59.2829 4.19 59.2829 5.83V7.48C59.2829 9.64 58.5629 11.06 57.1229 11.74C57.9029 12.06 58.4629 12.6 58.8029 13.36C59.1429 14.1 59.3129 15.05 59.3129 16.21V19.45C59.3129 20.05 59.3329 20.54 59.3729 20.92C59.4129 21.28 59.5129 21.64 59.6729 22H56.3129ZM52.7129 10.45H54.0029C54.6629 10.45 55.1529 10.28 55.4729 9.94C55.8129 9.6 55.9829 9.03 55.9829 8.23V6.16C55.9829 5.4 55.8429 4.85 55.5629 4.51C55.3029 4.17 54.8829 4 54.3029 4H52.7129V10.45ZM70.0832 22L69.5132 18.19H65.4632L64.8932 22H61.8632L65.2232 0.999999H70.0532L73.4132 22H70.0832ZM69.0632 15.34L67.4732 4.72L65.8832 15.34H69.0632ZM85.7407 16.96C85.7407 18.66 85.3207 19.97 84.4807 20.89C83.6407 21.79 82.4207 22.24 80.8207 22.24C79.2207 22.24 78.0007 21.79 77.1607 20.89C76.3207 19.97 75.9007 18.66 75.9007 16.96V6.04C75.9007 4.34 76.3207 3.04 77.1607 2.14C78.0007 1.22 79.2207 0.76 80.8207 0.76C82.4207 0.76 83.6407 1.22 84.4807 2.14C85.3207 3.04 85.7407 4.34 85.7407 6.04V8.08H82.6207V5.83C82.6207 4.45 82.0507 3.76 80.9107 3.76C79.7707 3.76 79.2007 4.45 79.2007 5.83V17.17C79.2007 18.53 79.7707 19.21 80.9107 19.21C82.0507 19.21 82.6207 18.53 82.6207 17.17V14.17H85.7407V16.96ZM92.293 15.55V22H88.993V0.999999H92.293V10.15L96.613 0.999999H99.913L95.323 10.36L99.913 22H96.523L93.313 13.63L92.293 15.55Z" fill="#1DB954"/>
</svg>
