<svg width="97" height="23" viewBox="0 0 97 23" fill="none" xmlns="http://www.w3.org/2000/svg">
<path d="M6 22.3C4.38 22.3 3.14 21.84 2.28 20.92C1.42 20 0.99 18.7 0.99 17.02V5.98C0.99 4.3 1.42 3 2.28 2.08C3.14 1.16 4.38 0.699999 6 0.699999C7.62 0.699999 8.86 1.16 9.72 2.08C10.58 3 11.01 4.3 11.01 5.98V17.02C11.01 18.7 10.58 20 9.72 20.92C8.86 21.84 7.62 22.3 6 22.3ZM6 19.3C7.14 19.3 7.71 18.61 7.71 17.23V5.77C7.71 4.39 7.14 3.7 6 3.7C4.86 3.7 4.29 4.39 4.29 5.77V17.23C4.29 18.61 4.86 19.3 6 19.3ZM14.4917 0.999999H23.2217V4H17.7917V9.85H22.0517V12.85H17.7917V22H14.4917V0.999999ZM26.0542 0.999999H34.7842V4H29.3542V9.85H33.6142V12.85H29.3542V22H26.0542V0.999999Z" fill="white"/>
<path d="M37.1667 6.04C37.1667 4.34 37.5767 3.04 38.3967 2.14C39.2167 1.22 40.4267 0.76 42.0267 0.76C43.6267 0.76 44.8367 1.22 45.6567 2.14C46.4767 3.04 46.8867 4.34 46.8867 6.04V6.7H43.7667V5.83C43.7667 5.11 43.6267 4.59 43.3467 4.27C43.0667 3.93 42.6567 3.76 42.1167 3.76C41.5767 3.76 41.1667 3.93 40.8867 4.27C40.6067 4.59 40.4667 5.11 40.4667 5.83C40.4667 6.71 40.6967 7.48 41.1567 8.14C41.6367 8.8 42.3467 9.55 43.2867 10.39C44.0667 11.11 44.6967 11.75 45.1767 12.31C45.6567 12.85 46.0667 13.51 46.4067 14.29C46.7467 15.07 46.9167 15.96 46.9167 16.96C46.9167 18.66 46.4967 19.97 45.6567 20.89C44.8167 21.79 43.5967 22.24 41.9967 22.24C40.3967 22.24 39.1767 21.79 38.3367 20.89C37.4967 19.97 37.0767 18.66 37.0767 16.96V15.67H40.1967V17.17C40.1967 18.53 40.7667 19.21 41.9067 19.21C43.0467 19.21 43.6167 18.53 43.6167 17.17C43.6167 16.29 43.3767 15.52 42.8967 14.86C42.4367 14.2 41.7367 13.45 40.7967 12.61C40.0167 11.89 39.3867 11.26 38.9067 10.72C38.4267 10.16 38.0167 9.49 37.6767 8.71C37.3367 7.93 37.1667 7.04 37.1667 6.04ZM59.2974 0.999999V4H55.8474V22H52.5474V4H49.0974V0.999999H59.2974ZM68.2082 22L67.6382 18.19H63.5882L63.0182 22H59.9882L63.3482 0.999999H68.1782L71.5382 22H68.2082ZM67.1882 15.34L65.5982 4.72L64.0082 15.34H67.1882ZM83.8657 10.3V16.96C83.8657 18.66 83.4457 19.97 82.6057 20.89C81.7657 21.79 80.5457 22.24 78.9457 22.24C77.3457 22.24 76.1257 21.79 75.2857 20.89C74.4457 19.97 74.0257 18.66 74.0257 16.96V6.04C74.0257 4.34 74.4457 3.04 75.2857 2.14C76.1257 1.22 77.3457 0.76 78.9457 0.76C80.5457 0.76 81.7657 1.22 82.6057 2.14C83.4457 3.04 83.8657 4.34 83.8657 6.04V8.08H80.7457V5.83C80.7457 4.45 80.1757 3.76 79.0357 3.76C77.8957 3.76 77.3257 4.45 77.3257 5.83V17.17C77.3257 18.53 77.8957 19.21 79.0357 19.21C80.1757 19.21 80.7457 18.53 80.7457 17.17V13.3H79.2457V10.3H83.8657ZM95.0652 9.85V12.85H90.5352V19H96.2352V22H87.2352V0.999999H96.2352V4H90.5352V9.85H95.0652Z" fill="#1ED05D"/>
</svg>
