<svg width="158" height="158" viewBox="0 0 158 158" fill="none" xmlns="http://www.w3.org/2000/svg">
<g id="popGenre">
<rect id="Rectangle Copy 3" width="158" height="158" rx="1.6" fill="#101010"/>
<path id="pop" d="M67.5102 61.4C69.0409 61.4 70.1889 61.8107 70.9542 62.632C71.7196 63.4533 72.1022 64.6573 72.1022 66.244V68.792C72.1022 70.3787 71.7196 71.5827 70.9542 72.404C70.1889 73.2253 69.0409 73.636 67.5102 73.636H66.0542V81H62.9742V61.4H67.5102ZM66.0542 70.836H67.5102C68.0142 70.836 68.3876 70.696 68.6302 70.416C68.8916 70.136 69.0222 69.66 69.0222 68.988V66.048C69.0222 65.376 68.8916 64.9 68.6302 64.62C68.3876 64.34 68.0142 64.2 67.5102 64.2H66.0542V70.836ZM74.2769 66.104C74.2769 64.536 74.6782 63.3227 75.4809 62.464C76.2836 61.6053 77.4409 61.176 78.9529 61.176C80.4649 61.176 81.6222 61.6053 82.4249 62.464C83.2276 63.3227 83.6289 64.536 83.6289 66.104V76.296C83.6289 77.864 83.2276 79.0773 82.4249 79.936C81.6222 80.7947 80.4649 81.224 78.9529 81.224C77.4409 81.224 76.2836 80.7947 75.4809 79.936C74.6782 79.0773 74.2769 77.864 74.2769 76.296V66.104ZM77.3569 76.492C77.3569 77.78 77.8889 78.424 78.9529 78.424C80.0169 78.424 80.5489 77.78 80.5489 76.492V65.908C80.5489 64.62 80.0169 63.976 78.9529 63.976C77.8889 63.976 77.3569 64.62 77.3569 65.908V76.492ZM91.1665 61.4C92.6971 61.4 93.8451 61.8107 94.6105 62.632C95.3758 63.4533 95.7585 64.6573 95.7585 66.244V68.792C95.7585 70.3787 95.3758 71.5827 94.6105 72.404C93.8451 73.2253 92.6971 73.636 91.1665 73.636H89.7105V81H86.6305V61.4H91.1665ZM89.7105 70.836H91.1665C91.6705 70.836 92.0438 70.696 92.2865 70.416C92.5478 70.136 92.6785 69.66 92.6785 68.988V66.048C92.6785 65.376 92.5478 64.9 92.2865 64.62C92.0438 64.34 91.6705 64.2 91.1665 64.2H89.7105V70.836Z" fill="white"/>
<path id="Line Copy 2" d="M58.4597 97.5H98.4597" stroke="#1DB954" stroke-width="2" stroke-linecap="round" stroke-linejoin="round"/>
</g>
</svg>
