<svg width="158" height="158" viewBox="0 0 158 158" fill="none" xmlns="http://www.w3.org/2000/svg">
<g id="rockGenre">
<rect id="Rectangle Copy 3" width="158" height="158" rx="1.6" fill="#101010"/>
<path id="pop" d="M62.1388 81C62.0268 80.6827 61.9522 80.384 61.9148 80.104C61.8775 79.824 61.8588 79.32 61.8588 78.592V75.512C61.8588 74.616 61.7002 73.9813 61.3828 73.608C61.0655 73.216 60.5522 73.02 59.8428 73.02H58.7788V81H55.6988V61.4H60.3468C61.9335 61.4 63.0908 61.7733 63.8188 62.52C64.5468 63.248 64.9108 64.3773 64.9108 65.908V67.448C64.9108 69.464 64.2388 70.7893 62.8948 71.424C63.6228 71.7227 64.1455 72.2267 64.4628 72.936C64.7802 73.6267 64.9388 74.5133 64.9388 75.596V78.62C64.9388 79.18 64.9575 79.6373 64.9948 79.992C65.0322 80.328 65.1255 80.664 65.2748 81H62.1388ZM58.7788 70.22H59.9828C60.5988 70.22 61.0562 70.0613 61.3548 69.744C61.6722 69.4267 61.8308 68.8947 61.8308 68.148V66.216C61.8308 65.5067 61.7002 64.9933 61.4388 64.676C61.1962 64.3587 60.8042 64.2 60.2628 64.2H58.7788V70.22ZM67.7125 66.104C67.7125 64.536 68.1138 63.3227 68.9165 62.464C69.7191 61.6053 70.8765 61.176 72.3885 61.176C73.9005 61.176 75.0578 61.6053 75.8605 62.464C76.6631 63.3227 77.0645 64.536 77.0645 66.104V76.296C77.0645 77.864 76.6631 79.0773 75.8605 79.936C75.0578 80.7947 73.9005 81.224 72.3885 81.224C70.8765 81.224 69.7191 80.7947 68.9165 79.936C68.1138 79.0773 67.7125 77.864 67.7125 76.296V66.104ZM70.7925 76.492C70.7925 77.78 71.3245 78.424 72.3885 78.424C73.4525 78.424 73.9845 77.78 73.9845 76.492V65.908C73.9845 64.62 73.4525 63.976 72.3885 63.976C71.3245 63.976 70.7925 64.62 70.7925 65.908V76.492ZM88.998 76.296C88.998 77.8827 88.606 79.1053 87.822 79.964C87.038 80.804 85.8993 81.224 84.406 81.224C82.9127 81.224 81.774 80.804 80.99 79.964C80.206 79.1053 79.814 77.8827 79.814 76.296V66.104C79.814 64.5173 80.206 63.304 80.99 62.464C81.774 61.6053 82.9127 61.176 84.406 61.176C85.8993 61.176 87.038 61.6053 87.822 62.464C88.606 63.304 88.998 64.5173 88.998 66.104V68.008H86.086V65.908C86.086 64.62 85.554 63.976 84.49 63.976C83.426 63.976 82.894 64.62 82.894 65.908V76.492C82.894 77.7613 83.426 78.396 84.49 78.396C85.554 78.396 86.086 77.7613 86.086 76.492V73.692H88.998V76.296ZM94.9468 74.98V81H91.8668V61.4H94.9468V69.94L98.9788 61.4H102.059L97.7748 70.136L102.059 81H98.8948L95.8988 73.188L94.9468 74.98Z" fill="white"/>
<path id="Line Copy 2" d="M54 98H102" stroke="#1DB954" stroke-width="2" stroke-linecap="round" stroke-linejoin="round"/>
</g>
</svg>
