<?xml version="1.0" encoding="UTF-8"?>
<svg width="180px" height="180px" viewBox="0 0 180 180" version="1.1" xmlns="http://www.w3.org/2000/svg" xmlns:xlink="http://www.w3.org/1999/xlink">
    <!-- Generator: Sketch 61.2 (89653) - https://sketch.com -->
    <title>Group</title>
    <desc>Created with Sketch.</desc>
    <defs>
        <circle id="path-1" cx="90" cy="90" r="90"></circle>
    </defs>
    <g id="dev-handoff" stroke="none" stroke-width="1" fill="none" fill-rule="evenodd">
        <g id="Create-Artist-Profile" transform="translate(-272.000000, -247.000000)">
            <g id="Group" transform="translate(272.000000, 247.000000)">
                <mask id="mask-2" fill="white">
                    <use xlink:href="#path-1"></use>
                </mask>
                <use id="Oval" fill="#333333" xlink:href="#path-1"></use>
                <g id="Group-9" mask="url(#mask-2)" fill="#B5B5B5">
                    <g transform="translate(54.000000, 49.764706)" id="Oval">
                        <path d="M71.2728116,83.6594747 C65.5733369,64.3914051 51.9274894,50.8235294 36,50.8235294 C20.0714945,50.8235294 6.42492204,64.3931363 0.72609772,83.6631624 C-1.10688828,89.8612282 73.1064873,89.8585358 71.2728116,83.6594747 Z"></path>
                        <circle cx="34.9411765" cy="22.2352941" r="22.2352941"></circle>
                    </g>
                </g>
                <rect id="Rectangle" fill="#101010" mask="url(#mask-2)" x="8.47058824" y="133.411765" width="162" height="48.7058824"></rect>
                <g id="Group-7-Copy" mask="url(#mask-2)">
                    <g transform="translate(59.294118, 145.058824)">
                        <text id="Upload" stroke="none" font-family="RobotoCondensed-Regular, Roboto Condensed" font-size="15.4905882" font-style="condensed" font-weight="normal">
                            <tspan x="20.1760633" y="14" fill="#FFFFFF">Upload</tspan>
                        </text>
                        <path d="M0,12.1764706 L0,14.2941176 C3.29465495e-16,15.1712758 0.711077162,15.8823529 1.58823529,15.8823529 L10.5882353,15.8823529 C11.4653934,15.8823529 12.1764706,15.1712758 12.1764706,14.2941176 L12.1764706,12.1764706 L12.1764706,12.1764706" id="Path-3" stroke="#FFFFFF" stroke-width="1.58823529" stroke-linecap="round" stroke-linejoin="round"></path>
                        <line x1="6.08823529" y1="12.7058824" x2="6.08823529" y2="3.17647059" id="Path-4" stroke="#FFFFFF" stroke-width="1.58823529" stroke-linecap="round"></line>
                        <line x1="6.08823529" y1="3.17647059" x2="9.26470588" y2="6.35294118" id="Path-7" stroke="#FFFFFF" stroke-width="1.58823529" stroke-linecap="round"></line>
                        <line x1="6.08823529" y1="3.17647059" x2="2.91176471" y2="6.35294118" id="Path-8" stroke="#FFFFFF" stroke-width="1.58823529" stroke-linecap="round"></line>
                    </g>
                </g>
            </g>
        </g>
    </g>
</svg>